<mxfile host="app.diagrams.net" modified="2023-12-19T07:27:56.947Z" agent="Mozilla/5.0 (Windows NT 10.0; Win64; x64) AppleWebKit/537.36 (KHTML, like Gecko) Chrome/120.0.0.0 Safari/537.36" etag="afjwYNrFnIwruoznJpti" version="22.1.11" type="github">
  <diagram name="Page-1" id="03018318-947c-dd8e-b7a3-06fadd420f32">
    <mxGraphModel dx="2074" dy="1132" grid="1" gridSize="10" guides="1" tooltips="1" connect="1" arrows="1" fold="1" page="1" pageScale="1" pageWidth="1100" pageHeight="850" background="none" math="0" shadow="0">
      <root>
        <mxCell id="0" />
        <mxCell id="1" parent="0" />
        <mxCell id="_3kurj9FxW8vLj781nlL-1" value="" style="whiteSpace=wrap;html=1;" vertex="1" parent="1">
          <mxGeometry x="40" y="80" width="1000" height="610" as="geometry" />
        </mxCell>
        <mxCell id="_3kurj9FxW8vLj781nlL-2" value="" style="rounded=0;whiteSpace=wrap;html=1;dashed=1;" vertex="1" parent="1">
          <mxGeometry x="40" y="650" width="1000" height="40" as="geometry" />
        </mxCell>
        <mxCell id="_3kurj9FxW8vLj781nlL-3" value="" style="rounded=0;whiteSpace=wrap;html=1;" vertex="1" parent="1">
          <mxGeometry x="40" y="650" width="120" height="40" as="geometry" />
        </mxCell>
        <mxCell id="_3kurj9FxW8vLj781nlL-4" value="" style="whiteSpace=wrap;html=1;" vertex="1" parent="1">
          <mxGeometry x="40" y="200" width="1000" height="450" as="geometry" />
        </mxCell>
        <mxCell id="_3kurj9FxW8vLj781nlL-15" value="" style="rounded=0;whiteSpace=wrap;html=1;" vertex="1" parent="1">
          <mxGeometry x="220" y="240" width="600" height="370" as="geometry" />
        </mxCell>
        <mxCell id="_3kurj9FxW8vLj781nlL-5" value="TIP" style="rounded=0;whiteSpace=wrap;html=1;" vertex="1" parent="1">
          <mxGeometry x="480" y="355" width="120" height="60" as="geometry" />
        </mxCell>
        <mxCell id="_3kurj9FxW8vLj781nlL-6" value="date section" style="rounded=0;whiteSpace=wrap;html=1;" vertex="1" parent="1">
          <mxGeometry x="40" y="80" width="230" height="120" as="geometry" />
        </mxCell>
        <mxCell id="_3kurj9FxW8vLj781nlL-7" value="" style="rounded=0;whiteSpace=wrap;html=1;" vertex="1" parent="1">
          <mxGeometry x="270" y="80" width="590" height="120" as="geometry" />
        </mxCell>
        <mxCell id="_3kurj9FxW8vLj781nlL-8" value="" style="rounded=0;whiteSpace=wrap;html=1;" vertex="1" parent="1">
          <mxGeometry x="860" y="80" width="180" height="120" as="geometry" />
        </mxCell>
        <mxCell id="_3kurj9FxW8vLj781nlL-9" value="居中 人物列表" style="rounded=0;whiteSpace=wrap;html=1;" vertex="1" parent="1">
          <mxGeometry x="490" y="110" width="120" height="60" as="geometry" />
        </mxCell>
        <mxCell id="_3kurj9FxW8vLj781nlL-10" value="物品列表" style="rounded=0;whiteSpace=wrap;html=1;" vertex="1" parent="1">
          <mxGeometry x="860" y="200" width="180" height="330" as="geometry" />
        </mxCell>
        <mxCell id="_3kurj9FxW8vLj781nlL-11" value="显示方式" style="rounded=0;whiteSpace=wrap;html=1;" vertex="1" parent="1">
          <mxGeometry x="860" y="530" width="180" height="120" as="geometry" />
        </mxCell>
        <mxCell id="_3kurj9FxW8vLj781nlL-12" value="" style="rounded=0;whiteSpace=wrap;html=1;" vertex="1" parent="1">
          <mxGeometry x="40" y="200" width="140" height="450" as="geometry" />
        </mxCell>
        <mxCell id="_3kurj9FxW8vLj781nlL-13" value="" style="rounded=0;whiteSpace=wrap;html=1;" vertex="1" parent="1">
          <mxGeometry x="40" y="500" width="140" height="150" as="geometry" />
        </mxCell>
        <mxCell id="_3kurj9FxW8vLj781nlL-14" value="" style="rounded=0;whiteSpace=wrap;html=1;" vertex="1" parent="1">
          <mxGeometry x="40" y="330" width="140" height="170" as="geometry" />
        </mxCell>
        <mxCell id="_3kurj9FxW8vLj781nlL-16" value="" style="rounded=0;whiteSpace=wrap;html=1;" vertex="1" parent="1">
          <mxGeometry x="160" y="650" width="120" height="40" as="geometry" />
        </mxCell>
        <mxCell id="_3kurj9FxW8vLj781nlL-17" value="" style="rounded=0;whiteSpace=wrap;html=1;" vertex="1" parent="1">
          <mxGeometry x="280" y="650" width="120" height="40" as="geometry" />
        </mxCell>
        <mxCell id="_3kurj9FxW8vLj781nlL-18" value="" style="rounded=0;whiteSpace=wrap;html=1;" vertex="1" parent="1">
          <mxGeometry x="400" y="650" width="120" height="40" as="geometry" />
        </mxCell>
        <mxCell id="_3kurj9FxW8vLj781nlL-19" value="" style="rounded=0;whiteSpace=wrap;html=1;" vertex="1" parent="1">
          <mxGeometry x="520" y="650" width="120" height="40" as="geometry" />
        </mxCell>
        <mxCell id="_3kurj9FxW8vLj781nlL-20" value="" style="rounded=0;whiteSpace=wrap;html=1;" vertex="1" parent="1">
          <mxGeometry x="640" y="650" width="120" height="40" as="geometry" />
        </mxCell>
        <mxCell id="_3kurj9FxW8vLj781nlL-21" value="" style="rounded=0;whiteSpace=wrap;html=1;" vertex="1" parent="1">
          <mxGeometry x="760" y="650" width="120" height="40" as="geometry" />
        </mxCell>
        <mxCell id="_3kurj9FxW8vLj781nlL-22" value="" style="rounded=0;whiteSpace=wrap;html=1;" vertex="1" parent="1">
          <mxGeometry x="880" y="650" width="120" height="40" as="geometry" />
        </mxCell>
      </root>
    </mxGraphModel>
  </diagram>
</mxfile>
